<svg width="64" xmlns="http://www.w3.org/2000/svg" height="64" viewBox="0 0 64 64" xmlns:xlink="http://www.w3.org/1999/xlink" enable-background="new 0 0 64 64">
<g transform="translate(0 -924.36218)" fill="#fff" >
<path d="m43.5,960.362c0,4.139-3.358,7.5-7.499,7.5-4.144,0-7.501-3.361-7.501-7.5 0-4.144 3.357-7.5 7.501-7.5 4.141,0 7.499,3.357 7.499,7.5z"/>
<path d="m10.864,966.362l-4.864-10.284c0,0 18.295-22.24 29.304-13.806 11.009,8.434-14.623-11.244-24.44,24.09z"/>
<path d="m35.5,933.107l10.926-2.745c0,0 18.237,22.645 7.905,31.812-10.333,9.165 13.535-12.382-18.831-29.067z"/>
<path d="m57.5,971.153l-3.265,10.559c0,0-28.624,4.243-31.2-8.946-2.576-13.187 3.395,17.546 34.465-1.613z"/>
</g>
</svg>
