<svg width="64" xmlns="http://www.w3.org/2000/svg" height="64" viewBox="0 0 64 64" xmlns:xlink="http://www.w3.org/1999/xlink" enable-background="new 0 0 64 64">
<g fill="#fff">
<path d="m19.838,43.947l2.493-3.74c-.925-.416-1.765-.982-2.492-1.671l-2.565,3.848c-.714-.245-1.477-.385-2.274-.385-3.866,0-7,3.134-7,7s3.134,7 7,7 7-3.134 7-7c0-1.987-.832-3.777-2.162-5.052z"/>
<path d="m49,24.998c-.824,0-1.611,.15-2.345,.411l-2.466-3.719c-.729,.689-1.564,1.258-2.487,1.676l2.406,3.629c-1.299,1.272-2.108,3.042-2.108,5.003 0,3.865 3.134,7 7,7s7-3.135 7-7c0-3.866-3.134-7-7-7z"/>
<path d="m38,22c3.866,0 7-3.134 7-7s-3.134-7-7-7-7,3.134-7,7c0,1.688 .598,3.235 1.592,4.444l-4.04,6.041c-.792-.311-1.65-.487-2.552-.487-3.866,0-7,3.134-7,7 0,3.865 3.134,7 7,7 .713,0 1.401-.108 2.05-.307l2.646,4.795c-1.639,1.282-2.696,3.272-2.696,5.513 0,3.866 3.134,7 7,7s7-3.134 7-7-3.134-7-7-7c-.55,0-1.082,.069-1.596,.189l-2.746-4.977c1.434-1.28 2.342-3.139 2.342-5.213 0-1.882-.747-3.587-1.955-4.845l3.916-5.854c.92,.445 1.948,.701 3.039,.701z"/>
</g>
</svg>
