<svg height="48" viewBox="0 0 48 48" width="48" xmlns="http://www.w3.org/2000/svg"><path d="m39 23.65-17-1.06-8.69-10.89-2.31 1.87 8.25 10.34-8.13 10.83 2.4 1.79 8.19-11 17.1 1.07zm-17.43.29v.23l-.14-.1z" fill="#455a64"/><circle cx="20.98" cy="24" fill="#303f9f" r="4"/><circle cx="12.5" cy="12.49" fill="#fff" r="5"/><path d="m12.5 9a3.5 3.5 0 1 1 -3.5 3.49 3.5 3.5 0 0 1 3.5-3.49m0-3a6.5 6.5 0 1 0 6.5 6.5 6.5 6.5 0 0 0 -6.5-6.5z" fill="#303f9f"/><circle cx="12.5" cy="35.49" fill="#fff" r="5"/><path d="m12.5 32a3.5 3.5 0 1 1 -3.5 3.49 3.5 3.5 0 0 1 3.5-3.49m0-3a6.5 6.5 0 1 0 6.5 6.5 6.5 6.5 0 0 0 -6.5-6.5z" fill="#303f9f"/><circle cx="35.5" cy="23.95" fill="#fff" r="5"/><path d="m35.5 20.45a3.5 3.5 0 1 1 -3.5 3.55 3.5 3.5 0 0 1 3.5-3.5m0-3a6.5 6.5 0 1 0 6.5 6.5 6.5 6.5 0 0 0 -6.5-6.5z" fill="#303f9f"/></svg>