<svg height="48" viewBox="0 0 48 48" width="48" xmlns="http://www.w3.org/2000/svg"><path d="m48 0v48h-48v-48z" fill="none" opacity=".25"/><path d="m39 29.92v-11.62a5.06 5.06 0 0 0 -.2-1.41l.43-.23-.46-.89-.37.23a4.93 4.93 0 0 0 -1.92-2l-10-5.82a5.25 5.25 0 0 0 -2.48-.75h-.14a4.48 4.48 0 0 0 -2.36.67l-10 5.82a4.92 4.92 0 0 0 -1.86 1.9l-.08-.05-.47.89.16.08a5.09 5.09 0 0 0 -.25 1.56v11.62a4.89 4.89 0 0 0 .19 1.38l-.1.05.47.88a5 5 0 0 0 1.94 2.07l10 5.81a5.32 5.32 0 0 0 2.5.68h.13a4.41 4.41 0 0 0 2.37-.68l10-5.81a5 5 0 0 0 2-2.2l.26.13.46-.88-.38-.2a5.59 5.59 0 0 0 .16-1.23zm-1-11.62v11.62a3.74 3.74 0 0 1 -.08.75l-12.7-6.67 12.66-6.64a4.17 4.17 0 0 1 .12.94zm-2-3.52a4.09 4.09 0 0 1 1.54 1.63l-12.94 6.79v-14.71a4.12 4.12 0 0 1 1.4.51zm-24 0 10-5.78a3.37 3.37 0 0 1 1.6-.52v14.68l-13.11-6.88a4.17 4.17 0 0 1 1.51-1.5zm-2 15.14v-11.63a4.32 4.32 0 0 1 .14-1.08l13 6.79-13 6.82a4.43 4.43 0 0 1 -.14-.9zm26 3.51-10 5.83a3.48 3.48 0 0 1 -1.85.53h-.15a4.29 4.29 0 0 1 -2-.54l-10-5.82a4 4 0 0 1 -1.56-1.66l13.16-6.92v14.73h1v-14.77l13 6.83a4 4 0 0 1 -1.6 1.79z" fill="#555"/><circle cx="9.3" cy="16.22" fill="#303f9f" r="4"/><circle cx="38.98" cy="16.22" fill="#8d6e63" r="4"/><circle cx="9.3" cy="31.79" fill="#ab47bc" r="4"/><circle cx="24.14" cy="24.11" fill="#1976d2" r="4"/><circle cx="38.98" cy="31.79" fill="#455a64" r="4"/><circle cx="24.14" cy="8.22" fill="#f57c00" r="4"/><circle cx="24.11" cy="39.58" fill="#b71c1c" r="4"/></svg>