<svg height="48" viewBox="0 0 48 48" width="48" xmlns="http://www.w3.org/2000/svg"><g fill="#455a64"><path d="m22.99 23.95h.97v16.06h-.97z"/><path d="m23.12 8.71h.86v15.35h-.86z"/><path d="m22.86 19.35h16.91v1h-16.91z" transform="matrix(.87360241 -.48664035 .48664035 .87360241 -5.7 17.75)"/><path d="m31.17 19.48h1v17.86h-1z" transform="matrix(.49954648 -.86628708 .86628708 .49954648 -8.77 41.65)"/><path d="m5.9 28.39h19.32v1h-19.32z" transform="matrix(.8660254 -.5 .5 .8660254 -12.36 11.65)"/><path d="m15.67 10.77h1v17.76h-1z" transform="matrix(.48511489 -.87445042 .87445042 .48511489 -8.86 24.25)"/></g><path d="m48 0v48h-48v-48z" fill="none" opacity=".25"/><circle cx="9.31" cy="15.98" fill="#303f9f" r="3.03"/><circle cx="38.59" cy="15.84" fill="#8d6e63" r="3.03"/><circle cx="9.31" cy="32.51" fill="#ab47bc" r="3.03"/><circle cx="38.55" cy="32.35" fill="#455a64" r="3.03"/><circle cx="23.96" cy="39.02" fill="#b71c1c" r="3.03"/><circle cx="23.93" cy="9.07" fill="#f57c00" r="3.03"/><path d="m31.9 29.89-6.91 4a2.13 2.13 0 0 1 -2.13 0l-6.9-4a2.12 2.12 0 0 1 -1.06-1.84v-8a2.13 2.13 0 0 1 1.1-1.82l6.9-4a2.09 2.09 0 0 1 2.13 0l6.91 4a2.13 2.13 0 0 1 1.06 1.85v8a2.12 2.12 0 0 1 -1.1 1.81z" fill="#303f9f"/></svg>