<svg height="48" viewBox="0 0 48 48" width="48" xmlns="http://www.w3.org/2000/svg"><path d="m20 37 21-22 1 3.272 2 2v-8.272c0-2.2-1.8-4-4-4h-32c-2.2 0-4 1.8-4 4v24c0 2.2 1.8 4 4 4h12z" fill="#555"/><path d="m33.928 40h6.072c2.2 0 4-1.8 4-4v-6.072l-2 2-2 4.058-4.072 2.014z" fill="#555"/><path d="m35.928 38h4.072c1.1 0 2-.9 2-2v-4.072z" fill="#fff"/><path d="m40.9 17.172 1.1 1.1v-6.272c0-1.1-.9-2-2-2h-32c-1.1 0-2 .9-2 2v24c0 1.1.9 2 2 2h12.072z" fill="#fff"/><path d="m8 12h10v24h-10z" fill="#b0bec5"/><g fill="#555"><path d="m20 12h2v24h-2z"/><path d="m10 14h6v2h-6z"/><path d="m10 20h6v2h-6z"/><path d="m10 26h6v2h-6z"/><path d="m10 32h6v2h-6z"/><path d="m24 14h16v2h-16z"/></g><path d="m22 44v-5.1l1.3-1.3 5.1 5.1-1.3 1.3z" fill="#424242"/><path d="m38.4 22.5 2.5-2.5 5.1 5.1-2.5 2.5z" fill="#ef5350"/><path d="m24.5 36.4 12.7-12.7 5 5-12.6 12.7z" fill="#f57c00"/><path d="m26.072 32h-2.072v2h.072z" fill="#555"/><path d="m32.072 26h-8.072v2h6.072z" fill="#555"/><path d="m38.072 20h-14.072v2h12.072z" fill="#555"/></svg>