<svg height="48" viewBox="0 0 48 48" width="48" xmlns="http://www.w3.org/2000/svg"><g fill="#fff"><path d="m42 31.928v4.072c0 1.1-.9 2-2 2h-4.072l-2 2h6.072c2.2 0 4-1.8 4-4v-6.072z"/><path d="m40 8h-32c-2.2 0-4 1.8-4 4v24c0 2.2 1.8 4 4 4h12v-2h-12c-1.1 0-2-.9-2-2v-24c0-1.1.9-2 2-2h32c1.1 0 2 .9 2 2v6.272l2 2v-8.272c0-2.2-1.8-4-4-4z"/><path d="m8 12h10v24h-10z" opacity=".5"/><path d="m20 12h2v24h-2z"/><path d="m10 14h6v2h-6z"/><path d="m10 20h6v2h-6z"/><path d="m10 26h6v2h-6z"/><path d="m10 32h6v2h-6z"/><path d="m24 14h16v2h-16z"/><path d="m22 44v-5.1l1.3-1.3 5.1 5.1-1.3 1.3z"/><path d="m38.4 22.5 2.5-2.5 5.1 5.1-2.5 2.5z"/><path d="m24.5 36.4 12.7-12.7 5 5-12.6 12.7z"/><path d="m26.072 32h-2.072v2h.072z"/><path d="m32.072 26h-8.072v2h6.072z"/><path d="m38.072 20h-14.072v2h12.072z"/></g></svg>