<svg height="48" viewBox="0 0 48 48" width="48" xmlns="http://www.w3.org/2000/svg"><g fill="#78909c"><path d="m36.5 25h-2v-2h2zm-3.91 0h-2v-2h2zm-15.65 0h-1.94v-2h2z"/><path d="m12.6 37.51-1.41-1.41 1.48-1.48 1.42 1.38zm3-3-1.42-1.42 1.48-1.48 1.42 1.42zm3-3-1.41-1.42 1.48-1.48 1.33 1.49z"/><path d="m31.19 18.93-1.42-1.42 1.49-1.51 1.41 1.42zm3-3-1.41-1.41 1.48-1.48 1.41 1.41z"/><path d="m18.35 19.06-1.35-1.38 1.41-1.41 1.38 1.38zm-2.76-2.76-1.38-1.38 1.41-1.41 1.38 1.38z"/><path d="m33.78 34.49-1.38-1.38 1.41-1.41 1.38 1.38zm-2.78-2.76-1.38-1.38 1.41-1.41 1.38 1.38z"/></g><circle cx="9.67" cy="38.95" fill="#f57c00" r="2.36"/><circle cx="37.94" cy="37.4" fill="#388e3c" r="3.91"/><circle cx="39.45" cy="24" fill="#1976d2" r="2.4"/><circle cx="38.18" cy="10.28" fill="#f57c00" r="3.67"/><circle cx="10.82" cy="10.28" fill="#1976d2" r="4.95"/><circle cx="10.82" cy="24" fill="#388e3c" r="2.97"/><circle cx="24.7" cy="24" fill="#fff" r="5.5"/><path d="m24.7 20a4 4 0 1 1 -4 4 4 4 0 0 1 4-4m0-3a7 7 0 1 0 7 7 7 7 0 0 0 -7-7z" fill="#1976d2"/><path d="m48 0v48h-48v-48z" fill="none" opacity=".25"/></svg>