<svg height="48" viewBox="0 0 48 48" width="48" xmlns="http://www.w3.org/2000/svg"><path d="m48 0v48h-48v-48z" fill="none" opacity=".25"/><path d="m22.3 25h-16.2v6a6 6 0 0 0 3 5.2l4.36 2.51z" fill="#ab47bc"/><path d="m39.09 12-4.38-2.52-8.71 13.52h16.13v-5.8a6 6 0 0 0 -3.04-5.2z" fill="#388e3c"/><path d="m24.08 25.94-8.88 13.76 5.89 3.39a6.32 6.32 0 0 0 3 .8 5.29 5.29 0 0 0 3-.8l5.91-3.4z" fill="#b71c1c"/><path d="m25.88 25 8.87 13.67 4.34-2.49a6 6 0 0 0 3-5.2v-5.98z" fill="#f57c00"/><path d="m24.08 22.26 8.92-13.78-5.91-3.38a6.43 6.43 0 0 0 -3-.8 5.48 5.48 0 0 0 -3 .8l-5.93 3.41z" fill="#1976d2"/><path d="m13.42 9.51-4.32 2.49a6 6 0 0 0 -3 5.2v5.8h16.09z" fill="#303f9f"/></svg>